<svg xmlns="http://www.w3.org/2000/svg" xmlns:xlink="http://www.w3.org/1999/xlink" width="1282" zoomAndPan="magnify" viewBox="0 0 961.5 265.499997" height="354" preserveAspectRatio="xMidYMid meet" version="1.0"><defs><g/><clipPath id="cf6e75f6bb"><path d="M 0.652344 46.414062 L 172.828125 46.414062 L 172.828125 218.589844 L 0.652344 218.589844 Z M 0.652344 46.414062 " clip-rule="nonzero"/></clipPath><clipPath id="7be7f400cb"><path d="M 0.652344 46.414062 L 87 46.414062 L 87 133 L 0.652344 133 Z M 0.652344 46.414062 " clip-rule="nonzero"/></clipPath></defs><g clip-path="url(#cf6e75f6bb)"><path fill="#0369a1" d="M 110.65625 96.710938 C 103.578125 91.980469 95.253906 89.457031 86.742188 89.457031 L 86.742188 46.414062 C 103.769531 46.414062 120.414062 51.460938 134.570312 60.921875 C 148.726562 70.378906 159.761719 83.824219 166.277344 99.554688 C 172.792969 115.285156 174.496094 132.597656 171.175781 149.296875 C 167.855469 165.996094 159.65625 181.335938 147.613281 193.375 C 135.574219 205.414062 120.234375 213.613281 103.535156 216.933594 C 86.835938 220.257812 69.527344 218.550781 53.796875 212.035156 C 38.066406 205.519531 24.621094 194.484375 15.164062 180.328125 C 5.703125 166.171875 0.652344 149.527344 0.652344 132.5 L 43.699219 132.5 C 43.699219 141.015625 46.222656 149.335938 50.953125 156.414062 C 55.683594 163.492188 62.40625 169.011719 70.269531 172.269531 C 78.136719 175.527344 86.789062 176.378906 95.140625 174.71875 C 103.488281 173.054688 111.160156 168.957031 117.179688 162.9375 C 123.199219 156.917969 127.296875 149.246094 128.957031 140.898438 C 130.621094 132.546875 129.765625 123.894531 126.507812 116.027344 C 123.25 108.164062 117.734375 101.441406 110.65625 96.710938 Z M 110.65625 96.710938 " fill-opacity="1" fill-rule="evenodd"/></g><g clip-path="url(#7be7f400cb)"><path fill="#0369a1" d="M 43.699219 46.414062 C 43.699219 52.066406 42.585938 57.664062 40.421875 62.886719 C 38.257812 68.105469 35.085938 72.851562 31.089844 76.847656 C 27.09375 80.847656 22.347656 84.015625 17.125 86.179688 C 11.902344 88.34375 6.308594 89.457031 0.652344 89.457031 L 0.652344 132.5 C 11.960938 132.5 23.152344 130.273438 33.597656 125.949219 C 44.042969 121.621094 53.535156 115.28125 61.527344 107.285156 C 69.519531 99.292969 75.863281 89.800781 80.1875 79.355469 C 84.515625 68.914062 86.742188 57.71875 86.742188 46.414062 Z M 43.699219 46.414062 " fill-opacity="1" fill-rule="evenodd"/></g><g fill="#0369a1" fill-opacity="1"><g transform="translate(228.225557, 179.473484)"><g><path d="M 54.320312 2.074219 C 72.152344 2.074219 87.769531 -6.910156 96.199219 -20.871094 L 74.777344 -33.3125 C 71.046875 -26.261719 63.304688 -22.113281 54.320312 -22.113281 C 38.703125 -22.113281 28.472656 -32.894531 28.472656 -48.375 C 28.472656 -63.859375 38.703125 -74.636719 54.320312 -74.636719 C 63.304688 -74.636719 71.046875 -70.492188 74.777344 -63.582031 L 96.199219 -75.882812 C 87.769531 -89.84375 72.011719 -98.828125 54.320312 -98.828125 C 25.019531 -98.828125 3.871094 -76.851562 3.871094 -48.375 C 3.871094 -19.902344 25.019531 2.074219 54.320312 2.074219 Z M 54.320312 2.074219 "/></g></g></g><g fill="#0369a1" fill-opacity="1"><g transform="translate(327.597398, 179.473484)"><g><path d="M 40.222656 1.933594 C 60.816406 1.933594 77.125 -13.960938 77.125 -34.554688 C 77.125 -55.148438 60.816406 -71.046875 40.222656 -71.046875 C 19.765625 -71.046875 3.316406 -55.148438 3.316406 -34.554688 C 3.316406 -13.960938 19.902344 1.933594 40.222656 1.933594 Z M 40.222656 -20.179688 C 32.34375 -20.179688 26.398438 -25.984375 26.398438 -34.554688 C 26.398438 -43.125 32.34375 -48.929688 40.222656 -48.929688 C 48.238281 -48.929688 54.183594 -43.125 54.183594 -34.554688 C 54.183594 -25.984375 48.238281 -20.179688 40.222656 -20.179688 Z M 40.222656 -20.179688 "/></g></g></g><g fill="#0369a1" fill-opacity="1"><g transform="translate(408.172892, 179.473484)"><g><path d="M 55.425781 -96.753906 L 55.425781 -62.75 C 51.003906 -68.003906 44.644531 -71.046875 35.800781 -71.046875 C 17.277344 -71.046875 3.316406 -55.289062 3.316406 -34.554688 C 3.316406 -13.820312 17.277344 1.933594 35.800781 1.933594 C 44.644531 1.933594 51.003906 -1.105469 55.425781 -6.359375 L 55.425781 0 L 78.371094 0 L 78.371094 -96.753906 Z M 40.914062 -19.488281 C 32.34375 -19.488281 26.398438 -25.570312 26.398438 -34.554688 C 26.398438 -43.539062 32.34375 -49.621094 40.914062 -49.621094 C 49.484375 -49.621094 55.425781 -43.539062 55.425781 -34.554688 C 55.425781 -25.570312 49.484375 -19.488281 40.914062 -19.488281 Z M 40.914062 -19.488281 "/></g></g></g><g fill="#0369a1" fill-opacity="1"><g transform="translate(493.171061, 179.473484)"><g><path d="M 27.089844 -26.125 L 74.777344 -26.125 C 75.46875 -29.027344 75.746094 -31.789062 75.746094 -34.691406 C 75.746094 -55.425781 60.816406 -71.046875 40.082031 -71.046875 C 18.519531 -71.046875 3.316406 -55.148438 3.316406 -34.417969 C 3.316406 -13.960938 18.105469 1.933594 42.019531 1.933594 C 54.320312 1.933594 64.824219 -2.210938 71.734375 -10.917969 L 55.148438 -22.53125 C 51.832031 -19.351562 47.546875 -17.691406 42.570312 -17.691406 C 35.9375 -17.691406 29.855469 -19.488281 27.089844 -26.125 Z M 26.816406 -42.019531 C 28.75 -48.375 33.726562 -51.695312 40.359375 -51.695312 C 45.890625 -51.695312 51.28125 -49.207031 53.351562 -42.019531 Z M 26.816406 -42.019531 "/></g></g></g><g fill="#0369a1" fill-opacity="1"><g transform="translate(572.088065, 179.473484)"><g><path d="M 28.613281 -48.929688 C 28.613281 -51.003906 30.546875 -52.246094 33.726562 -52.246094 C 37.597656 -52.246094 40.359375 -50.171875 42.296875 -46.304688 L 61.644531 -55.011719 C 55.980469 -66.34375 45.613281 -71.046875 33.171875 -71.046875 C 19.074219 -71.046875 5.390625 -63.441406 5.390625 -47.824219 C 5.390625 -23.359375 39.117188 -27.921875 39.117188 -20.734375 C 39.117188 -18.246094 36.90625 -17 32.894531 -17 C 27.503906 -17 23.910156 -19.488281 22.113281 -24.601562 L 2.074219 -14.511719 C 7.601562 -2.765625 18.519531 1.933594 33.035156 1.933594 C 47.132812 1.933594 62.890625 -4.007812 62.890625 -21.285156 C 62.890625 -47.546875 28.613281 -41.328125 28.613281 -48.929688 Z M 28.613281 -48.929688 "/></g></g></g><g fill="#0369a1" fill-opacity="1"><g transform="translate(637.737057, 179.473484)"><g><path d="M 55.425781 -69.109375 L 55.425781 -62.75 C 51.003906 -68.003906 44.644531 -71.046875 35.800781 -71.046875 C 17.277344 -71.046875 3.316406 -55.289062 3.316406 -34.554688 C 3.316406 -13.820312 17.277344 1.933594 35.800781 1.933594 C 44.644531 1.933594 51.003906 -1.105469 55.425781 -6.359375 L 55.425781 0 L 78.371094 0 L 78.371094 -69.109375 Z M 40.914062 -19.488281 C 32.34375 -19.488281 26.398438 -25.570312 26.398438 -34.554688 C 26.398438 -43.539062 32.34375 -49.621094 40.914062 -49.621094 C 49.484375 -49.621094 55.425781 -43.539062 55.425781 -34.554688 C 55.425781 -25.570312 49.484375 -19.488281 40.914062 -19.488281 Z M 40.914062 -19.488281 "/></g></g></g><g fill="#0369a1" fill-opacity="1"><g transform="translate(722.735215, 179.473484)"><g><path d="M 56.117188 -69.109375 L 56.117188 -62.476562 C 51.695312 -67.867188 45.335938 -71.046875 36.765625 -71.046875 C 17.554688 -71.046875 3.871094 -55.148438 3.871094 -35.9375 C 3.871094 -16.722656 17.554688 -0.828125 36.765625 -0.828125 C 45.335938 -0.828125 51.695312 -4.007812 56.117188 -9.398438 L 56.117188 -2.765625 C 56.117188 5.804688 49.898438 9.675781 42.15625 9.675781 C 34.691406 9.675781 30.546875 6.632812 27.503906 1.796875 L 8.429688 12.855469 C 14.652344 24.050781 27.367188 29.71875 42.433594 29.71875 C 60.539062 29.71875 78.785156 20.316406 78.785156 -2.765625 L 78.785156 -69.109375 Z M 41.464844 -21.5625 C 32.757812 -21.5625 26.816406 -27.644531 26.816406 -35.9375 C 26.816406 -44.230469 32.757812 -50.3125 41.464844 -50.3125 C 50.171875 -50.3125 56.117188 -44.230469 56.117188 -35.9375 C 56.117188 -27.644531 50.171875 -21.5625 41.464844 -21.5625 Z M 41.464844 -21.5625 "/></g></g></g><g fill="#0369a1" fill-opacity="1"><g transform="translate(808.148012, 179.473484)"><g><path d="M 55.425781 -69.109375 L 55.425781 -62.75 C 51.003906 -68.003906 44.644531 -71.046875 35.800781 -71.046875 C 17.277344 -71.046875 3.316406 -55.289062 3.316406 -34.554688 C 3.316406 -13.820312 17.277344 1.933594 35.800781 1.933594 C 44.644531 1.933594 51.003906 -1.105469 55.425781 -6.359375 L 55.425781 0 L 78.371094 0 L 78.371094 -69.109375 Z M 40.914062 -19.488281 C 32.34375 -19.488281 26.398438 -25.570312 26.398438 -34.554688 C 26.398438 -43.539062 32.34375 -49.621094 40.914062 -49.621094 C 49.484375 -49.621094 55.425781 -43.539062 55.425781 -34.554688 C 55.425781 -25.570312 49.484375 -19.488281 40.914062 -19.488281 Z M 40.914062 -19.488281 "/></g></g></g></svg>